<?xml version="1.0" encoding="UTF-8"?><svg id="Layer_1" xmlns="http://www.w3.org/2000/svg" viewBox="0 0 150 150"><defs><style>.cls-1{fill:none;stroke:#aa732f;stroke-miterlimit:10;stroke-width:2px;}</style></defs><path class="cls-1" d="M118.54,31.79c0,15.22-18.6,9.67-43.54,9.67s-43.54,5.56-43.54-9.67S50.05,.98,75,.98s43.54,15.59,43.54,30.81Z"/><path class="cls-1" d="M84.89,56.76h-19.79c-10.34,0-18.72-8.38-18.72-18.72h0c0-5.77,4.16-10.7,9.85-11.67l8.57-1.46c6.75-1.15,13.65-1.15,20.4,0l8.57,1.46c5.69,.97,9.85,5.9,9.85,11.67h0c0,10.34-8.38,18.72-18.72,18.72Z"/><g><rect class="cls-1" x="31.46" y="131.88" width="18.85" height="17.13"/><rect class="cls-1" x="99.69" y="131.88" width="18.85" height="17.13"/></g><rect class="cls-1" x="69.96" y="112.33" width="10.07" height="7.27" rx="2.41" ry="2.41"/><g><rect class="cls-1" x="45.64" y="107.93" width="23.35" height="14.35" transform="translate(98.18 -6.81) rotate(45)"/><rect class="cls-1" x="81.01" y="107.93" width="23.35" height="14.35" transform="translate(239.62 130.95) rotate(135)"/></g><g><path class="cls-1" d="M81.28,149.01h57.45c0-19.13-15.51-34.64-34.64-34.64"/><path class="cls-1" d="M45.91,114.37c-19.13,0-34.64,15.51-34.64,34.64h57.45"/><polyline class="cls-1" points="73.2 119.6 68.72 149.01 81.28 149.01 76.8 119.6"/></g><g><path class="cls-1" d="M75.72,41.46l-28.61,.85,1.43,16.34c-.08,0-.16-.04-.24-.04-2.7,0-4.88,3.5-4.88,7.81s2.19,7.81,4.88,7.81c0,0,2.44,12.82,11.2,16.12v16.86"/><path class="cls-1" d="M74.28,41.46l28.61,.85-1.43,16.34c.08,0,.16-.04,.24-.04,2.7,0,4.88,3.5,4.88,7.81,0,4.31-2.19,7.81-4.88,7.81,0,0-2.44,12.82-11.2,16.12v16.86"/></g></svg>